<svg xmlns="http://www.w3.org/2000/svg" viewBox="0 0 701.01 621.74"><defs><style>.cls-1{fill:#00a99d;}.cls-2,.cls-3,.cls-4{fill:none;stroke:#000;stroke-linecap:round;}.cls-2,.cls-4{stroke-miterlimit:10;}.cls-2,.cls-3{stroke-width:2px;}.cls-3{stroke-linejoin:round;}.cls-4{stroke-width:4px;}.cls-5{fill:#469b74;}.cls-6{fill:#5da055;}</style></defs><title>Ресурс 1</title><g id="Слой_2" data-name="Слой 2"><g id="Слой_1-2" data-name="Слой 1"><path d="M316.23,52.86,297,58.17,291.54,41l-12.92-9.32s-12.43-12.62,1.16-26,34.74,3.15,33.82,10.05h0S337.5,11.57,343.93,29a49.53,49.53,0,0,1-27.7,23.82"/><circle class="cls-1" cx="402.54" cy="143.71" r="7.12"/><circle class="cls-1" cx="426.67" cy="138.42" r="11.49"/><circle class="cls-1" cx="422.76" cy="162.55" r="4.37"/><circle class="cls-1" cx="393.11" cy="112.23" r="5.52"/><polygon class="cls-1" points="206.97 263.9 206.11 342.07 266.72 342.03 271.32 263.9 206.97 263.9"/><path class="cls-1" d="M245.12,247.81s-6.44,1.84-6.44,4.14v12.41H235l.46-14.71s8.27-5.05,9.19-4.59S245.58,247.81,245.12,247.81Z"/><polygon class="cls-1" points="267.64 248.27 267.99 263.9 264.42 264.36 264.95 250.18 267.64 248.27"/><path class="cls-1" d="M344.39,77.3s5.52.92,11.49,11,46.89,124.09,46.89,124.09l-48.72,15.63-10.12-51Z"/><path class="cls-1" d="M288.78,90.17c-11.95,21.6-45.5,137.88-45.5,137.88h29.54l4.47-43.66,20.22-.46V172l34,.46V71.78C303.49,68.1,288.78,90.17,288.78,90.17ZM271,176.4c-.76,2.58-6.14,6.61-8.9,4.31s5.06-9.19,5.06-9.19C269,179.79,271.78,173.81,271,176.4Z"/><circle cx="346.69" cy="51.1" r="10.11"/><circle cx="326.93" cy="49.72" r="10.11"/><line class="cls-2" x1="280.97" y1="382.48" x2="273.15" y2="405.46"/><circle cx="291.47" cy="161.24" r="1.72"/><circle cx="274.3" cy="169.45" r="2.99"/><circle cx="283.96" cy="155.08" r="1.72"/><path d="M314.75,272.4l3.68-14.71s-17.93,2.3-21.15-6.89l.23-66.87-20.45.23L258.22,379h24.36l19.07-69.63a29.21,29.21,0,0,1-17-3.68c-4.59-2.61-10-7.08-11.6-15.62a1,1,0,0,1,1.55-1,4.62,4.62,0,0,1,1.09,1.23c1.84,2.75,8.73,16.54,32.63,15.62,25.47-1,67.57,2.76,67.57,2.76l2.76-18.38Zm-41.6,12.87a2.58,2.58,0,1,1,2.07-2.53A2.33,2.33,0,0,1,273.15,285.27Z"/><path class="cls-3" d="M381.62,224.37s9.2,13.33,5.52,18.39S372.89,229,372.89,229s3.22,8.73.46,10.11-11.49-11-11.49-11"/><path class="cls-3" d="M389.9,220.7c0,.46,6.43,20.22,4.13,22.52s-6.89-.46-6.89-.46"/><path class="cls-3" d="M395.87,215.18s4.51,22,2.3,24.82c-1.88,2.4-3.51-1.06-3.68-.92"/><path class="cls-2" d="M258,382.48l-18.85,29.87s32.18-5.51,34.47-23.9"/><line class="cls-4" x1="471.89" y1="392.79" x2="464.8" y2="395.35"/><path class="cls-2" d="M313.6,15.71S309.43-5.12,284.85,2.79A14.28,14.28,0,0,0,277.67,8c-4.74,6.53-10.45,20.52,13.87,33,0,0,2.76,36.31,36.31,30.33,0,0,15-3.52,21.14-17C355.43,40.07,339.8,7.43,313.6,15.71Z"/><path class="cls-2" d="M345.15,29c-18.08,28-54.53,30.8-54.53,30.8"/><path class="cls-2" d="M410.58,172l-.46,78.59s-1.38,7.81-13.79,7.81h-71.7"/><line class="cls-2" x1="420.23" y1="144.86" x2="394.03" y2="171.98"/><line class="cls-2" x1="401.85" y1="153.59" x2="399.79" y2="166.02"/><line class="cls-2" x1="403.56" y1="162.12" x2="415.63" y2="162.78"/><line class="cls-2" x1="380.7" y1="134.29" x2="389.9" y2="148.54"/><line class="cls-2" x1="393.11" y1="114.98" x2="388.98" y2="158.65"/><line class="cls-2" x1="400.93" y1="127.39" x2="411.5" y2="117.74"/><path class="cls-2" d="M243.28,232.19c0,.92-5.52,15.16,1.38,19.76s20.68,3.22,23-6.89-7.35-8.74-7.35-8.74"/><path class="cls-2" d="M246.5,235.4s4.13-.92,6,2.76.92,3.68.92,3.68,10.11.46,9.19,3.67-14.7,1.84-14.7,1.84"/><path class="cls-2" d="M381.62,292.4c1.84.45,26.2,7.35,26.2,7.35"/><path class="cls-2" d="M391.28,301.13s17.92,9.65,16.54,28.95c0,0-16.09-13.33-28.95-19.76"/><line class="cls-2" x1="224.89" y1="262.98" x2="224.89" y2="333.3"/><polyline class="cls-2" points="214.78 272.63 214.78 334.22 205.13 342.95"/><line class="cls-2" x1="214.78" y1="334.22" x2="223.98" y2="342.95"/><path class="cls-2" d="M327.85,171.06s-6-30-26.2-30.8c-21.07-.82-35.65,28.22-34.66,31.46.1.32.23.63.31.95.53,2,3.27,7.31,17.34,1.6,17-6.89,14.71-6.43,14.71-6.43"/><path class="cls-2" d="M286.94,143s-1.84-8.73,0-10.11,10.57,6.89,10.57,6.89"/><path class="cls-2" d="M300.27,154.51s2.76-10.11,5.06-9.19,2.75,16.54,2.75,16.54"/><path class="cls-2" d="M451.76,400.45s-24.38,6.23-27.21,4-3.4-13-15.88-14.74-44.79,18.71-51,15.3-.57-21-18.71-11.9-32.89,11.9-49.33,12.47"/><path class="cls-5" d="M63.25,151.28s49.44,38.39,57,44.79a22.35,22.35,0,0,1,7.55,15.38,2.85,2.85,0,0,0,.12.71l15,49.65L187.05,422a3.22,3.22,0,0,1,.11.81h0a3,3,0,0,1-3.07,3l-157-1.69a3.11,3.11,0,0,1-1.09-.21c-2.76-1.1-14.69-7-15.72-26C9.25,378.36,38,237.53,43.24,212.19a3,3,0,0,0-2.76-3.63,9.33,9.33,0,0,1-8.07-6.09c-3.49-8.14,0-16.87,5.82-25s25-26.76,25-26.76Z"/><polygon class="cls-5" points="142.36 263.55 160.4 235.05 131.31 213.53 127.24 226.9 142.36 263.55"/><path class="cls-2" d="M75.75,244.07s-10.47,37.81-11.63,51.19-3.49,34.32,11.63,48.28,27.35,25.6,27.35,25.6"/><path class="cls-2" d="M124.33,275.77s-19.78,30.25-18,34.32,25,29.09,25,29.09"/><line class="cls-2" x1="135.96" y1="331.62" x2="109.2" y2="374.08"/><path class="cls-2" d="M185.42,424.07s-33.17,1.79-62.84-12.17S33.58,359,13.22,386.3"/><path class="cls-2" d="M58,381.31s-5.79,29.42,5.27,44.55,43,49.45,43,49.45,10,21.08-9.6,26.4a.21.21,0,0,0,0,.41l88.09,3.44c25-5.24,16.87-30.25,16.87-30.25l-12.22-41.89"/><path class="cls-2" d="M120.26,424.11l24.13,45a1.88,1.88,0,0,1-1.64,2.76L70,472.39a4.17,4.17,0,0,0-2,.51c-3.33,1.82-13.77,8.91-11.8,25.09,2.32,19.2-1.75,44.22-1.75,44.22s2.33,30.25,23.27,12.21,9.31-69.22-3.49-76.79"/><line class="cls-2" x1="58.59" y1="507.88" x2="79.53" y2="507.88"/><path class="cls-2" d="M106.29,189.09s-37.81,19.78-58.75,20.36"/><line class="cls-2" x1="128.98" y1="215.27" x2="139.45" y2="254.83"/><path class="cls-2" d="M134.22,212.36s23.27-22.11,33.74-28.5l-1.16,12.79-11.64,6.4s18.62-7.56,21.52-6.4-7.56,16.29-19.19,26.18l11.63-9.89s12.22,5.24,12.8,5.24-6.4,9.31-20.36,11.63"/><path class="cls-2" d="M180.18,217c5.81,2.91,13.38,0,13.38,0,7.56-7,10.47-46.53,9.3-49.44s-16.87-5.24-22.68-4.66-8.73,6.4-8.73,6.4l26.18,4.07L191.81,210l-11.63-1.74.58-4.66,5.81.59L190.06,178l-20.36-2.91-1.16,8.14-1.74,13.38"/><line class="cls-2" x1="151.09" y1="504.39" x2="121.42" y2="572.46"/><path class="cls-2" d="M105.13,509.05,69.06,620.74h71.59a2,2,0,0,0,2-2.23c-.19-2.06-1.75-5.18-8.47-7.66-9-3.31-22.77-8.74-20-7.75.13,0-.94-.33-1.55-.45-2.54-.5-12.29-3.87-4.65-31.36"/><path class="cls-2" d="M84.77,572.46s23.85-16.29,30.25,5.81c0,0,1.75,11.64-2.33,15.13s13.38,9.31,16.87,6.4,5.82-11,0-11.64-15.12,2.33-15.12,2.33"/><path class="cls-2" d="M101.64,595.73c0,.58-7,12.79-23.27,13.38H73.72"/><path class="cls-2" d="M66.15,146s7-25,32.58-25"/><path class="cls-2" d="M102.8,124.52s19.2-29.09,36.65-11.64c14.33,14.33-12.19,28.74-19.27,28.37a1.49,1.49,0,0,0-1.58,1.5c.07,4.91-.31,15.34-4.74,16.67-5.82,1.75-12.22,1.75-15.13-12.21,0,0-7.56-9.31-11.63,5.23S82.44,160,82.44,160"/><path class="cls-2" d="M131.31,142.55s.87,9.14,1.16,15.13c.1,1.95,2.58,3.5,3.43,5.25,2,4.21,4,12.6-6.92,13.36h-4.65s-4.07,6.4-8.73,7"/><line class="cls-2" x1="1" y1="620.74" x2="13.22" y2="620.74"/><line class="cls-2" x1="25.43" y1="620.74" x2="54.52" y2="620.74"/><line class="cls-2" x1="155.16" y1="620.74" x2="173.78" y2="620.74"/><path d="M167.38,196.07l2.32-20.36L190.06,178l-2.9,26.76-6.4-1.17-.88,4.37,11.35,2,6.11-36.35-24.78-4.19s2.75-5,5.91-6.24,23.45,3.35,23.45,3.35a33.14,33.14,0,0,1,.94,10.28c-.4,7.33-2.5,17.16-3.78,23.56-2.33,11.63-4.52,16.21-4.52,16.21L183,218.21l-15-5.7,3-4,7.13-11.57-2.33-1.16-8.72,1.75Z"/><path class="cls-6" d="M630.7,275.51s.53,22.42-19.75,22.95S560.26,282,560.26,282s-4.27,1.55-5.88,8.49a76.27,76.27,0,0,0-1.6,21.34,60.64,60.64,0,0,1,0,10.68H580c1.6,0,3.74.53,11.74,29.88s15,53.91,15,53.91l1.6,2.13s28.28-1.6,30.42,0,1.6,8.54,1.6,8.54h21.34V292.59S657.92,272.31,630.7,275.51Z"/><path d="M661.65,416.94s2.05,23.34-11.74,39.49c-8,9.34-22.16,15.28-42.69,15.48-56,.53-27.22,0-27.22,0s-33.62-47.5-70.44-26.15c0,0-10.14,7.47-12.28,15.47s-19.21,67.25-19.21,67.25H464.19l11.74,4.8-11.74,31-17.61-6.4,2.14-3.74S416.16,552,406,542.89c0,0-2.13-8.54,33.09-6.41,0,0,12.81.54,14.94-8.54s24-87,24-87,7.47-20.81,22.95-23.48S661.65,416.94,661.65,416.94Z"/><path d="M486.61,557.83h19.21l33.62-85.92,35.09.23s-39.36-52-71.38-13.57L472.2,564.23S453,595.72,444.45,601.59c0,0-1.6,21.35,33.09-1.6,0,0,16-13.34,20.28-35.76Z"/><path d="M573.6,229.08s-16.55-1.06-18.15,16,4.81,13,4.81,13l14.94-17.27s1.6,11.2,22.41,20.27,26.8,5.42,27.54-2.09,4-28.32-20.07-31.53-33.62,1.6-33.62,1.6"/><line class="cls-2" x1="558.12" y1="265.37" x2="560.26" y2="270.71"/><line class="cls-2" x1="610.95" y1="265.37" x2="602.95" y2="273.38"/><path class="cls-2" d="M578.93,290.46c40,11.2,44.83-25.09,44.83-25.09-2.13,0-35.75,3.21-48.56-24.54l-17.08,19.74s-14.41-29.35,13.34-31.49"/><path class="cls-2" d="M623.76,265.37c9.61-36.29-16.54-37.89-16.54-37.89"/><ellipse cx="589.34" cy="214.41" rx="22.68" ry="23.75"/><circle class="cls-2" cx="569.59" cy="277.38" r="10.41"/><circle class="cls-2" cx="591.48" cy="277.38" r="10.41"/><path class="cls-2" d="M545.31,322.48l-82.18.53s-4.81,0,1.06,19.21,23.49,73.12,23.49,73.12,1.06,3.2,2.66,3.73"/><path class="cls-2" d="M667.52,306.47s42.16,14.94,30.42,77.91c0,0-9.07,40-32.55,75.25,0,0-2.67,10.68,16,15.48,0,0,11.74,9.07-6.4,13.34,0,0,12.8,102.47,12.27,112.07-.15,2.73-2,1.33-2.67,1.6-.51.21-17.69-59.86-24-114.2h-32s-1.07,111.54-3.74,114.2-4.8,1.07-4.8-3.73-7.47-109.94-7.47-109.94H542.64"/><line class="cls-2" x1="612.56" y1="488.45" x2="618.96" y2="488.45"/><line class="cls-2" x1="660.14" y1="487.92" x2="665.92" y2="487.92"/><path class="cls-2" d="M550.37,488.45S534.64,598.92,532.5,601.06s-3.73-1.07-3.73-1.07l3.73-95"/><path class="cls-2" d="M577.25,488.45s-3.12,110.47.08,113.14,3.21-.53,4.81-4.8,9.6-102.47,9.6-102.47"/><path class="cls-2" d="M641.91,365.17s-28.29-8.54-29.35,7.47c-.65,9.62.23,22.12,2.66,22.95,1.48.5,4.28-5.48,5.53-12.72a.3.3,0,0,1,.6,0c.64,5.26,2.43,17.71,4.55,14.31s4.22-12.11,5-15.6a.29.29,0,0,1,.56,0c.86,5.36,4,22.78,7.24,11.86l1.06-12.28s2.67,1.07,6.41-1.06,2.67-2.14,2.67-2.14"/><path class="cls-6" d="M517,346.64h-1.36l8.85,37.43s25.86,3.4,27.22-8.85S517,346.64,517,346.64ZM532.6,379.3l-4.08-15.65s10.89,7.49,11.57,11.57S532.6,379.3,532.6,379.3Z"/></g></g></svg>