<svg xmlns="http://www.w3.org/2000/svg" viewBox="0 0 160.58 401.76"><defs><style>.cls-1{fill:#469b74;}.cls-2{fill:none;stroke:#000;stroke-linecap:round;stroke-miterlimit:10;stroke-width:4px;}</style></defs><title>Ресурс 2</title><g id="Слой_2" data-name="Слой 2"><g id="Слой_1-2" data-name="Слой 1"><path class="cls-1" d="M50.22,36.07s38.31,29.74,44.17,34.7a17.28,17.28,0,0,1,5.85,11.91,2.05,2.05,0,0,0,.1.55L112,121.7l34.16,124.08a2.16,2.16,0,0,1,.09.62h0a2.35,2.35,0,0,1-2.38,2.35L22.23,247.44a2.21,2.21,0,0,1-.84-.17c-2.13-.85-11.38-5.38-12.18-20.12C8.39,212,30.68,102.89,34.73,83.26a2.37,2.37,0,0,0-2.14-2.82,7.2,7.2,0,0,1-6.25-4.71c-2.71-6.31,0-13.07,4.5-19.38S50.22,35.62,50.22,35.62Z"/><polygon class="cls-1" points="111.52 123.05 125.49 100.96 102.95 84.29 99.8 94.66 111.52 123.05"/><path class="cls-2" d="M59.91,108s-8.11,29.29-9,39.66-2.71,26.59,9,37.41,21.18,19.83,21.18,19.83"/><path class="cls-2" d="M97.54,132.51S82.22,156,83.57,159.1,103,181.64,103,181.64"/><line class="cls-2" x1="106.56" y1="175.78" x2="85.83" y2="208.68"/><path class="cls-2" d="M144.87,247.4s-25.69,1.39-48.68-9.43-68.95-41-84.73-19.83"/><path class="cls-2" d="M46.14,214.27s-4.48,22.8,4.08,34.52,33.35,38.3,33.35,38.3,7.74,16.34-7.43,20.46a.16.16,0,0,0,0,.32l68.24,2.66c19.38-4.06,13.07-23.44,13.07-23.44L148,254.65"/><path class="cls-2" d="M94.39,247.43l18.69,34.84a1.45,1.45,0,0,1-1.27,2.14l-56.34.43a3.06,3.06,0,0,0-1.51.39c-2.58,1.41-10.67,6.9-9.15,19.44,1.81,14.87-1.35,34.25-1.35,34.25s1.81,23.44,18,9.47,7.21-53.63-2.7-59.49"/><line class="cls-2" x1="46.62" y1="312.33" x2="62.84" y2="312.33"/><path class="cls-2" d="M83.57,65.36S54.28,80.68,38.05,81.13"/><line class="cls-2" x1="101.15" y1="85.64" x2="109.26" y2="116.29"/><path class="cls-2" d="M105.21,83.39s18-17.13,26.13-22.09l-.9,9.92-9,5s14.42-5.86,16.67-5-5.85,12.62-14.87,20.28l9-7.66s9.46,4,9.91,4-5,7.22-15.77,9"/><path class="cls-2" d="M140.81,87c4.51,2.26,10.36,0,10.36,0,5.86-5.41,8.12-36,7.22-38.3s-13.07-4.06-17.58-3.61-6.76,5-6.76,5l20.28,3.15-4.51,28.39-9-1.35.45-3.6,4.51.45,2.7-20.28L132.7,54.54l-.9,6.31-1.36,10.37"/><line class="cls-2" x1="118.28" y1="309.63" x2="95.29" y2="362.36"/><path class="cls-2" d="M82.67,313.23,54.73,399.76h55.45a1.58,1.58,0,0,0,1.59-1.72c-.15-1.6-1.36-4-6.56-5.94-7-2.57-17.64-6.77-15.48-6a10.32,10.32,0,0,0-1.2-.35c-2-.39-9.52-3-3.61-24.29"/><path class="cls-2" d="M66.9,362.36s18.48-12.62,23.43,4.5c0,0,1.36,9-1.8,11.72s10.37,7.21,13.07,5,4.51-8.56,0-9-11.72,1.8-11.72,1.8"/><path class="cls-2" d="M80,380.38c0,.46-5.41,9.92-18,10.37H58.33"/><path class="cls-2" d="M52.48,32s5.4-19.38,25.23-19.38"/><path class="cls-2" d="M80.87,15.34s14.87-22.54,28.39-9c11.1,11.1-9.44,22.27-14.93,22a1.15,1.15,0,0,0-1.22,1.16c0,3.8-.25,11.89-3.68,12.92-4.51,1.35-9.46,1.35-11.72-9.47,0,0-5.85-7.21-9,4.06s-3.6,5.86-3.6,5.86"/><path class="cls-2" d="M103,29.31s.67,7.07.9,11.71c.08,1.52,2,2.71,2.66,4.08,1.58,3.26,3.07,9.75-5.36,10.35H97.54s-3.15,4.95-6.76,5.4"/><line class="cls-2" x1="2" y1="399.76" x2="11.46" y2="399.76"/><line class="cls-2" x1="20.93" y1="399.76" x2="43.46" y2="399.76"/><line class="cls-2" x1="121.43" y1="399.76" x2="135.85" y2="399.76"/><path d="M130.89,70.77,132.7,55l15.77,1.81-2.25,20.73-5-.9L140.58,80l8.79,1.57,4.73-28.16-19.19-3.25s2.13-3.9,4.58-4.83,18.17,2.59,18.17,2.59a25.93,25.93,0,0,1,.73,8c-.31,5.68-1.94,13.29-2.93,18.25-1.81,9-3.8,12.33-3.8,12.33l-8.94,1.2-9.8-4.07,1.8-3.15,4.51-9-1.8-.9-6.76,1.36Z"/></g></g></svg>