<svg xmlns="http://www.w3.org/2000/svg" xmlns:xlink="http://www.w3.org/1999/xlink" viewBox="0 0 353.11 288.3"><defs><style>.cls-1{fill:url(#Безымянный_градиент_35);}</style><linearGradient id="Безымянный_градиент_35" x1="-27.04" y1="-26.09" x2="297.15" y2="263.62" gradientUnits="userSpaceOnUse"><stop offset="0" stop-color="#22c773"/><stop offset="0.51" stop-color="#13b582"/><stop offset="1" stop-color="#009f94"/></linearGradient></defs><title>Ресурс 2</title><g id="Слой_2" data-name="Слой 2"><g id="Слой_2-2" data-name="Слой 2"><path class="cls-1" d="M149,126.57l91-93s-95-83-200,12c-12,10-81.24,97.87-4,190,8.17,9.76,19.05,17.45,31,27,0,0,91,69,184-19s98-102,98-102,11-22-3-40-42-18-52-10c-6.72,5.38-33,31-33,31l-76.5,76.5s-39.5,30.5-80.5-7.5L62.75,149.73a37.65,37.65,0,0,1-10.37-28C53.13,110,59.51,96.07,82,87.57c0,0,17.5-5.5,31.5,6.5S149,126.57,149,126.57Z"/></g></g></svg>