<svg xmlns="http://www.w3.org/2000/svg" xmlns:xlink="http://www.w3.org/1999/xlink" viewBox="0 0 284.91 69.92"><defs><style>.cls-1{fill:url(#Безымянный_градиент_35);}.cls-2{font-size:48.51px;fill:#0c4c40;font-family:Montserrat-ExtraLight, Montserrat;font-weight:200;letter-spacing:0.05em;}</style><linearGradient id="Безымянный_градиент_35" x1="-6.56" y1="-6.33" x2="72.07" y2="63.94" gradientUnits="userSpaceOnUse"><stop offset="0" stop-color="#22c773"/><stop offset="0.51" stop-color="#13b582"/><stop offset="1" stop-color="#009f94"/></linearGradient></defs><title>Ресурс 2</title><g id="Слой_2" data-name="Слой 2"><g id="Слой_3" data-name="Слой 3"><path class="cls-1" d="M36.14,30.7,58.21,8.14S35.17-12,9.7,11.05c-2.91,2.43-19.7,23.74-1,46.09,2,2.36,4.63,4.23,7.52,6.54,0,0,22.07,16.74,44.63-4.6S84.65,34.34,84.65,34.34s2.67-5.34-.73-9.7-10.19-4.37-12.61-2.43c-1.63,1.3-8,7.52-8,7.52L44.75,48.28s-9.58,7.4-19.52-1.82l-10-10.14a9.16,9.16,0,0,1-2.52-6.8c.19-2.85,1.73-6.22,7.19-8.28a8.59,8.59,0,0,1,7.64,1.58C30.93,25.73,36.14,30.7,36.14,30.7Z"/><text class="cls-2" transform="translate(92.53 49.24)">ompitu</text></g></g></svg>