<svg xmlns="http://www.w3.org/2000/svg" viewBox="0 0 587.96 386.01"><defs><style>.cls-1{fill:#d6d6d6;}.cls-2{fill:#4a9957;}.cls-3{fill:#489991;}.cls-4{fill:#415b46;}.cls-5{fill:#74b583;}.cls-6{fill:#eae0a7;}.cls-7{fill:none;stroke:#000;stroke-linecap:round;stroke-miterlimit:10;stroke-width:4px;}</style></defs><title>Ресурс 1</title><g id="Слой_2" data-name="Слой 2"><g id="Слой_6" data-name="Слой 6"><path class="cls-1" d="M169,198c-2-1-72,38-103-14a136.44,136.44,0,0,1-11-19s-4-5-26-2S2,145,2,145s1-16,7-19c0,0,36.5-38.5,62.5-28.5S169,198,169,198Z"/></g><g id="Слой_4" data-name="Слой 4"><path class="cls-2" d="M42.46,57.51s8,16,10,17-19,17-19,17-4,12-2,14,12.06,12.53,30,.26,31-19.26,31-19.26,16,1,20-11c0,0,37-20,39-27s11-12-4-21l-18,7-8,4h-4s4-2,2-7-11-11-11-11,15-18,30-19c0,0,17-5,28,5s20,25,16,40-10,26-22,33-14,8-14,8l9,10-57,64-21-30-30,11s-30,6-41-26,5-41,5-41Z"/><path class="cls-2" d="M94,51s-4-13-11-6c0,0-4,4-1,14,0,0-13,10-13,13s-2,8,23-1,19-15,19-15,2-4.75-12.49-1.88Z"/></g><g id="Слой_5" data-name="Слой 5"><path class="cls-3" d="M80,96s16,14,19,21,18,36.91-3.26,41.7c0,0,9.76,21.8,54.76,32.8s72,3,72,3,50.15-17.73,60.07-11.86c0,0,39.38,5.33,38.16,80.59s50.7,41.2,50.7,41.2,14.2,3.14-2.36-84.89c0,0-9.51-75.55-53-78.8L284,135s63.5-20.5,91-14,47.5,17.5,45,77-3,69-3,69,13.5,15.5,30.5,3.5c0,0,12.82,0,14.41-20.49S469.58,132.1,450,117.3s-26.25-38.89-88.4-45.84c0,0-44.92,3.38-83,18.21S213,113.06,184.74,114.28c0,0-26.28-13.77-28.28-15.77s-10,3-21-8l-18-18-4,3,17,16s-19,12-28,23a138.63,138.63,0,0,0-20-21Z"/></g><g id="Слой_8" data-name="Слой 8"><polygon class="cls-4" points="462.96 304.01 330.82 348.45 430.96 375.01 467.96 345.01 462.96 304.01"/></g><g id="Слой_7" data-name="Слой 7"><polygon class="cls-5" points="463.96 283.01 428.96 372.01 328.96 348.01 333.96 359.01 430.96 384.01 548.96 333.01 584.96 228.01 463.96 283.01"/></g><g id="Слой_9" data-name="Слой 9"><path class="cls-6" d="M337,311s-5,19-3,23,3,15,26,6c0,0,15-3,23,8,0,0,4,4,6,2,0,0,1,9,5,7s1-10,1-10,1-1,3,4,6,1,5-1-3-5-3-5h0c2,0,2,4,4,4s4-2,2-4-1-4,0-2,4,4,5,2-2-5-2-5-1-2,1-1,4,4,6,1-3-4-5-6-10-6-11-7a19.15,19.15,0,0,0-8-4c-4-1-13-3-15-4s-5-13-5-13S349,316,337,311Z"/><path class="cls-6" d="M417,272s-7,9-1,13,14,7,11,15-9,19-5,23,9,1,10-7c0,0,1-6,2-3s-1,11,4,8-1-7,2-7,2,8,5,6-1-6,1-6,3.36,5.73,4.68,2.87,4-10.15,4-10.15S449,306,450,303s5-9,2-15-2-11-2-13v-3a90.72,90.72,0,0,1-18,2C424.32,273.9,417,271,417,272Z"/><path class="cls-6" d="M45,56S64,40,68,41s-9,8-8,9,11-9,13-7S61,52,63,53s12-8,14-6S66,56,67,57s11-7,12-5S61,65,63,66s6-3,7-2-13,9-13,9l-7.7-3.51L42,59Z"/><path class="cls-6" d="M107,19s-1,3-8,6S80,36,81,38s11-6,12-6S81,42,83,42s9-5,11-5-6,5-5,6c.2.19.37,1.11,1,1,2.55-.47,8-3.81,8-3,0,1-4,4-4,5a3.49,3.49,0,0,0,1,2s9-7,10-7,3,1-2,6,5,1,9-5l5-3s3.65-1,2.83-6.52S108,19,107,19Z"/><path class="cls-6" d="M88,74l6,11s13,1,14-4a41.84,41.84,0,0,0,1-7l-6-7Z"/></g><g id="Слой_3" data-name="Слой 3"><path class="cls-7" d="M214,139c19,3,37-1,56-3a147.6,147.6,0,0,1,47,5c17,5,32,16,38,32,15,34,18,70,22,106,0,8,2,17-4,24-9,9-22,8-33,8-8-1-13-7-15-14-4-23-5-44-7-67-3-27-26-56-56-47-16,6-32,11-47.95,14"/><path class="cls-7" d="M137,187.91a152.38,152.38,0,0,0,39.95,9.63"/><path class="cls-7" d="M46.45,142.78c10.93-1.24,21-6.63,30.51-11.77,6.51,14.1,16.81,26.88,28.33,37.2"/><path class="cls-7" d="M44,55c-1,1-1,2-2,3C29,66,12,69,5,83c-7,17-1,37,11.88,49.36"/><path class="cls-7" d="M129,34c22-11,28.19-3,26,8s-46,33.52-45,33l-7-10c-2,6-16,8-16,8l6,12L65,104c-28,15-35.5,1.62-33-8S57,74,57,74c-7,0-8-6-11-10"/><path class="cls-7" d="M416,267c.51,2.45,2.88,3.83,5,4.69,7,2.78,15.75,2.16,23,.67,5.71-1.18,13.19-3.37,15.42-9.42,1.89-5.13,2.27-11.07,2.87-16.46,1-8.9,1.6-17.84,2-26.78,1-20.4,1.22-41-.44-61.35-.73-8.91-1.64-18-5.13-26.28-4.24-10.13-11.28-18.92-19.27-26.35-18.26-17-42.3-28.33-66.69-33-15.69-3-31.75-.14-47.12,3.4-19,4.37-37.69,10.39-56.17,16.66-16.81,5.7-33.47,11.85-50.35,17.36-12,3.92-23.41,8.16-35.88,3.68C169.42,108.81,157,98.58,147,88c3.07-1.42,10,10.57,0,0,17-8,33-20,36-39,4-16-2-34-16.39-43.5"/><path class="cls-7" d="M108,19A74.51,74.51,0,0,1,136.57,2"/><path class="cls-7" d="M111,76s-3,13-18,9"/><path class="cls-7" d="M86,73s-21,6-19,0S82,58,82,58"/><path class="cls-7" d="M84,44s6-3,9,3,3,8,3,8,15-5,16-1,0,8-9,11"/><path class="cls-7" d="M92,60s-1,1-4,1"/><line class="cls-7" x1="419.96" y1="318.01" x2="399.96" y2="325.01"/><polyline class="cls-7" points="328.96 349.01 333.96 359.01 430.96 384.01 432.96 384.01 549.96 334.01"/><line class="cls-7" x1="549.96" y1="334.01" x2="585.96" y2="229.01"/><path class="cls-7" d="M102,79s9,11,6,15"/><line class="cls-7" x1="106.96" y1="90.01" x2="103.96" y2="94.01"/><line class="cls-7" x1="108.96" y1="89.01" x2="112.96" y2="92.01"/></g></g></svg>