<svg xmlns="http://www.w3.org/2000/svg" viewBox="0 0 221.91 314.11"><defs><style>.cls-1{fill:#5da055;}.cls-2{fill:none;stroke:#000;stroke-linecap:round;stroke-miterlimit:10;stroke-width:4px;}</style></defs><title>Ресурс 3</title><g id="Слой_2" data-name="Слой 2"><g id="Слой_1-2" data-name="Слой 1"><path class="cls-1" d="M168.07,63.47s.4,16.76-14.77,17.16S115.38,68.3,115.38,68.3s-3.2,1.15-4.39,6.34a56.85,56.85,0,0,0-1.2,16,45.7,45.7,0,0,1,0,8h20.36c1.19,0,2.79.4,8.78,22.36s11.18,40.31,11.18,40.31l1.19,1.6s21.16-1.2,22.75,0,1.2,6.39,1.2,6.39h16v-93S188.42,61.07,168.07,63.47Z"/><path d="M191.22,169.25s1.53,17.46-8.78,29.53c-6,7-16.58,11.43-31.94,11.58-41.91.4-20.35,0-20.35,0S105,174.83,77.46,190.8c0,0-7.59,5.59-9.18,11.58s-14.37,50.29-14.37,50.29H43.53l8.78,3.59-8.78,23.16-13.17-4.79,1.59-2.8S7.6,270.24,0,263.45c0,0-1.6-6.39,24.75-4.79,0,0,9.58.4,11.17-6.39s18-65.06,18-65.06,5.58-15.57,17.16-17.56S191.22,169.25,191.22,169.25Z"/><path d="M60.29,274.63H74.66l25.15-64.27,26.24.18s-29.43-38.9-53.38-10.16l-23.15,79S35.15,303,28.76,307.36c0,0-1.2,16,24.75-1.2a49.9,49.9,0,0,0,15.17-26.74Z"/><path d="M125.36,28.74s-12.38-.8-13.57,12,3.59,9.73,3.59,9.73l11.17-12.92s1.2,8.38,16.77,15.17,20,4.05,20.6-1.57,3-21.18-15-23.58-25.15,1.2-25.15,1.2"/><line class="cls-2" x1="113.78" y1="55.88" x2="115.38" y2="59.87"/><line class="cls-2" x1="153.3" y1="55.88" x2="147.31" y2="61.87"/><path class="cls-2" d="M129.35,74.64c29.94,8.39,33.53-18.76,33.53-18.76-1.6,0-26.75,2.4-36.33-18.36L113.78,52.29s-10.78-21.95,10-23.55"/><path class="cls-2" d="M162.88,55.88c7.18-27.14-12.38-28.34-12.38-28.34"/><ellipse cx="137.13" cy="17.76" rx="16.96" ry="17.76"/><circle class="cls-2" cx="122.36" cy="64.86" r="7.78"/><circle class="cls-2" cx="138.73" cy="64.86" r="7.78"/><path class="cls-2" d="M104.2,98.59,42.73,99s-3.59,0,.8,14.37,17.56,54.69,17.56,54.69.8,2.39,2,2.79"/><path class="cls-2" d="M195.61,86.62s31.53,11.18,22.75,58.28c0,0-6.78,29.93-24.35,56.28,0,0-2,8,12,11.58,0,0,8.78,6.78-4.79,10,0,0,9.58,76.64,9.18,83.83-.11,2-1.47,1-2,1.2-.38.15-13.23-44.78-18-85.42H166.47s-.8,83.42-2.79,85.42-3.6.8-3.6-2.8-5.58-82.23-5.58-82.23H102.21"/><line class="cls-2" x1="154.5" y1="222.73" x2="159.29" y2="222.73"/><line class="cls-2" x1="190.09" y1="222.34" x2="194.41" y2="222.34"/><path class="cls-2" d="M108,222.73S96.22,305.36,94.62,307s-2.79-.8-2.79-.8l2.79-71.05"/><path class="cls-2" d="M128.09,222.73s-2.33,82.63.06,84.63,2.4-.4,3.59-3.59,7.19-76.64,7.19-76.64"/><path class="cls-2" d="M176.45,130.53s-21.16-6.39-21.95,5.59c-.48,7.19.17,16.54,2,17.16,1.11.38,3.2-4.1,4.13-9.51a.23.23,0,0,1,.45,0c.48,3.93,1.82,13.24,3.41,10.71s3.16-9.06,3.75-11.67a.21.21,0,0,1,.41,0c.65,4,3,17,5.41,8.86l.8-9.18a5.82,5.82,0,0,0,4.79-.8c2.8-1.59,2-1.59,2-1.59"/><path class="cls-1" d="M83,116.66H82l6.62,28S107.93,147.2,109,138,83,116.66,83,116.66ZM94.7,141.1l-3.06-11.71s8.15,5.6,8.65,8.65S94.7,141.1,94.7,141.1Z"/></g></g></svg>