<svg xmlns="http://www.w3.org/2000/svg" viewBox="0 0 210.66 411.16"><defs><style>.cls-1{fill:#00a99d;}.cls-2,.cls-3{fill:none;stroke:#000;stroke-linecap:round;stroke-width:4px;}.cls-2{stroke-miterlimit:10;}.cls-3{stroke-linejoin:round;}</style></defs><title>фывфывРесурс 1</title><g id="Слой_2" data-name="Слой 2"><g id="Слой_1-2" data-name="Слой 1"><path d="M88.07,42.18,73.16,46.29,68.94,33l-10-7.22S49.3,16,59.83,5.61,86.74,8.05,86,13.39h0s18.52-3.2,23.5,10.33A38.38,38.38,0,0,1,88.07,42.18"/><circle class="cls-1" cx="154.93" cy="112.56" r="5.52"/><circle class="cls-1" cx="173.62" cy="108.46" r="8.9"/><circle class="cls-1" cx="170.6" cy="127.16" r="3.38"/><circle class="cls-1" cx="147.63" cy="88.17" r="4.27"/><polygon class="cls-1" points="3.42 205.67 2.76 266.23 49.71 266.2 53.27 205.67 3.42 205.67"/><path class="cls-1" d="M33,193.21s-5,1.42-5,3.2V206H25.14l.36-11.4s6.41-3.91,7.12-3.56S33.33,193.21,33,193.21Z"/><polygon class="cls-1" points="50.42 193.56 50.7 205.67 47.93 206.03 48.34 195.04 50.42 193.56"/><path class="cls-1" d="M109.89,61.11s4.27.71,8.9,8.54,36.32,96.14,36.32,96.14L117.37,177.9l-7.84-39.53Z"/><path class="cls-1" d="M66.8,71.08C57.55,87.81,31.55,177.9,31.55,177.9H54.44l3.46-33.83,15.67-.36v-9.25l26.35.35v-78C78.2,54,66.8,71.08,66.8,71.08ZM53,137.88c-.59,2-4.75,5.12-6.89,3.34s3.92-7.12,3.92-7.12C51.49,140.51,53.63,135.88,53,137.88Z"/><path class="cls-2" d="M86,13.39s-3.22-16.13-22.27-10a11,11,0,0,0-5.56,4C54.53,12.46,50.1,23.3,68.94,33c0,0,2.14,28.13,28.13,23.5,0,0,11.66-2.73,16.38-13.18C118.43,32.27,106.33,7,86,13.39Z"/><path class="cls-2" d="M110.48,23.72c-14,21.71-42.25,23.86-42.25,23.86"/><circle cx="111.67" cy="40.81" r="7.83"/><circle cx="96.36" cy="39.74" r="7.83"/><path class="cls-2" d="M161.16,134.46l-.35,60.88s-1.07,6.06-10.69,6.06H94.58"/><line class="cls-2" x1="168.64" y1="113.45" x2="148.34" y2="134.46"/><line class="cls-2" x1="154.4" y1="120.21" x2="152.8" y2="129.84"/><line class="cls-2" x1="155.72" y1="126.82" x2="165.08" y2="127.34"/><line class="cls-2" x1="138.02" y1="105.26" x2="145.14" y2="116.3"/><line class="cls-2" x1="147.63" y1="90.3" x2="144.43" y2="124.13"/><line class="cls-2" x1="153.68" y1="99.92" x2="161.87" y2="92.44"/><path class="cls-2" d="M31.55,181.1c0,.71-4.27,11.75,1.07,15.31s16,2.5,17.81-5.34-5.7-6.76-5.7-6.76"/><path class="cls-2" d="M34.05,183.59a4.24,4.24,0,0,1,4.62,2.14c1.43,2.85.72,2.85.72,2.85s7.83.36,7.12,2.85-11.4,1.42-11.4,1.42"/><path class="cls-2" d="M138.73,227.75c1.42.35,20.3,5.69,20.3,5.69"/><path class="cls-2" d="M146.21,234.51S160.09,242,159,256.94c0,0-12.47-10.32-22.44-15.31"/><line class="cls-2" x1="60.75" y1="297.54" x2="54.7" y2="315.34"/><line class="cls-2" x1="17.31" y1="204.96" x2="17.31" y2="259.44"/><polyline class="cls-2" points="9.48 212.44 9.48 260.15 2 266.91"/><line class="cls-2" x1="9.48" y1="260.15" x2="16.6" y2="266.91"/><path class="cls-2" d="M97.07,133.75s-4.64-23.25-20.3-23.86c-16.32-.64-27.61,21.86-26.85,24.37.08.25.18.48.25.73.4,1.55,2.53,5.67,13.43,1.25,13.17-5.34,11.39-5,11.39-5"/><path class="cls-2" d="M65.38,112s-1.42-6.76,0-7.83,8.19,5.34,8.19,5.34"/><path class="cls-2" d="M75.71,120.93s2.13-7.84,3.91-7.12,2.14,12.81,2.14,12.81"/><circle cx="68.89" cy="126.14" r="1.33"/><circle cx="55.59" cy="132.5" r="2.31"/><circle cx="63.07" cy="121.37" r="1.33"/><path d="M86.92,212.26l2.85-11.4s-13.89,1.78-16.38-5.34l.18-51.81-15.85.18-14.59,151H62l14.77-54a22.58,22.58,0,0,1-13.17-2.85c-3.56-2-7.78-5.49-9-12.1a.78.78,0,0,1,1.2-.78,3.77,3.77,0,0,1,.85.95c1.42,2.14,6.76,12.82,25.28,12.11,19.72-.76,52.34,2.14,52.34,2.14l2.14-14.25Zm-32.22,10a2,2,0,1,1,1.6-2A1.8,1.8,0,0,1,54.7,222.23Z"/><path class="cls-3" d="M138.73,175.05s7.12,10.32,4.27,14.24-11-10.68-11-10.68,2.5,6.76.36,7.83-8.9-8.54-8.9-8.54"/><path class="cls-3" d="M145.14,172.2c0,.36,5,15.67,3.2,17.45s-5.34-.36-5.34-.36"/><path class="cls-3" d="M149.77,167.93s3.49,17,1.78,19.23c-1.46,1.86-2.72-.82-2.85-.72"/><path class="cls-2" d="M43,297.54l-14.6,23.14s24.92-4.27,26.7-18.51"/><line class="cls-2" x1="208.66" y1="305.53" x2="203.17" y2="307.5"/><path class="cls-2" d="M193.07,311.46s-18.89,4.83-21.09,3.07-2.63-10.1-12.29-11.42S125,317.61,120.15,315s-.43-16.25-14.49-9.22a86.42,86.42,0,0,1-38.21,9.66"/><text/></g></g></svg>