<svg xmlns="http://www.w3.org/2000/svg" viewBox="0 0 556.14 557"><defs><style>.cls-1{fill:#085e41;}.cls-2{fill:#3aa06d;}.cls-3{fill:none;stroke:#000;stroke-linecap:round;stroke-miterlimit:10;stroke-width:6px;}.cls-4{fill:#2d7254;}.cls-5{fill:#44a08e;}.cls-6{fill:#4d8253;}</style></defs><title>Ресурс 1</title><g id="Слой_2" data-name="Слой 2"><g id="Слой_4" data-name="Слой 4"><path class="cls-1" d="M532.69,79.79c-11.15-7.17-57-9.09-90.21-8L439.13,100l-20-2,2.27-24.89c-3.18.32-6,.68-8.23,1.08-24,4.18-25,46.81-25,46.81l-23,65-54.3,119.54c-19.7,24.46.34,26.49.34,26.49s175,2,199.78-2.58,40.6-48.59,40.6-48.59l1.18-50.2C555.32,115.32,550.13,91,532.69,79.79Z"/><path class="cls-2" d="M358.13,204l-6,11,44,17,103.3,18.18s28.7-.18,20.7-27.18-24-80-24-80-24-20-50-26l-1-14.84-28-4.16s0,13-11,19-19,7-19,7l-37,47Z"/><path class="cls-3" d="M412.13,113l-24,11s-6-41,31-52"/><path class="cls-4" d="M347.13,191.11l8,18.89h47.22s-6-6.66,2.88-10.83,7.9-5.17,7.9-5.17l-25-72.34-64,2.34Z"/><path d="M263.13,194c-24-3-40,13-40,13l-146,149,25,23,87-82-8,212,34-3,13-203s160,5,207,0,60-54,60-54S287.13,197,263.13,194Zm-30,62,19-19,49,17Z"/><path d="M428.13,31s-14-4-15-14,6-17,6-17,5,13,11,14,14,4,16,6,0,4,0,6,4,3,4,3l5-1v6l-4,8Z"/><line class="cls-3" x1="478.13" y1="164" x2="491.13" y2="216"/><path class="cls-3" d="M495.13,249c20,5,23-7,26-16s-7-35-7-35-11-47-18-57-50-25-50-25V105"/><path class="cls-3" d="M95.13,376l-11,9-21,20-59-58s-5-10,6-2,33,31,42,30l15.27-9.74,11.69-7.46Z"/><path class="cls-3" d="M67.13,363s4-6-3-6-12,6-11,10,5.47,3.87,5.47,3.87S49.13,375,46.13,367"/><path class="cls-3" d="M209.73,506.11,208.15,554h-78s-13.66-3.56,1-6c12-2,39,1,47-7s13-27,12-32"/><path class="cls-3" d="M187.13,523s-11-5-10,3,4,9,4,9-9,9-13,2"/><line class="cls-3" x1="345.51" y1="122.36" x2="337.51" y2="105.36"/><path class="cls-3" d="M446.13,71l59,1s43,2,45,34,3,168,3,168-9,57-58,58-188,0-188,0"/><path class="cls-3" d="M427.68,201.51c-.13-.31-.3-.78-.55-1.51-1-3-13-9-15-7s3.74,5.35,3.74,5.35h0a22.76,22.76,0,0,0-5.75-.35c-10,1-9,7-9,7v3c-2.22,4.48,34.62,10.8,40,12l3-12S436.28,204.4,427.68,201.51Z"/><polyline class="cls-3" points="432.13 336 432.13 478 384.13 533"/><line class="cls-3" x1="432.13" y1="478" x2="482.13" y2="533"/><path class="cls-5" d="M380.13,125a193.53,193.53,0,0,0-3,33.49c0,18.26-2,25.37-4,29.42s-56,3.05-56,3.05,8-13.19,7-25.37,0-42.62,0-42.62l56-1Z"/><circle cx="377.63" cy="541.5" r="10.5"/><circle cx="487.63" cy="541.5" r="10.5"/><path class="cls-3" d="M324.13,124s.91,42.18-.54,50.09S315.13,193,315.13,193l32-1.89"/><line class="cls-3" x1="355.13" y1="210" x2="398.5" y2="210"/><path class="cls-3" d="M450.13,34s-5,11-1,12,4,8,0,9-10.51,46.19-10.51,46.19L419.13,98l2-42-15-3,16-16-.73-10.52"/><line class="cls-3" x1="467.13" y1="105" x2="550.13" y2="105"/><line class="cls-3" x1="550.13" y1="194" x2="515.13" y2="194"/><line class="cls-3" x1="390.12" y1="105.36" x2="406.13" y2="105"/><line class="cls-3" x1="550.13" y1="282" x2="507.13" y2="282"/><line class="cls-6" x1="552.13" y1="225" x2="537.13" y2="225"/></g></g></svg>