<svg xmlns="http://www.w3.org/2000/svg" viewBox="0 0 954.74 662.5"><defs><style>.cls-1,.cls-4{fill:#fff;}.cls-1,.cls-8{stroke:#5b5b5b;}.cls-1,.cls-4,.cls-5{stroke-miterlimit:10;}.cls-2{fill:#f2f2f2;}.cls-3,.cls-5,.cls-8{fill:none;stroke-linecap:round;stroke-width:7px;}.cls-3,.cls-4,.cls-5{stroke:#4b996b;}.cls-3,.cls-8{stroke-linejoin:round;}.cls-6{fill:#4b996b;}.cls-7{fill:#5b5b5b;}</style></defs><title>notFoundРесурс 4</title><g id="Слой_2" data-name="Слой 2"><g id="Слой_2-2" data-name="Слой 2"><path class="cls-1" d="M442.65,460.19c59.91-9.53,71.15,79.72,71.15,134.67l82.89-.12C596.46,564,589.94,473.89,553.63,434c-44.5-48.9-127.49-48.44-174.46-19.68-80.09,49-65.88,180.84-65.88,180.84L396,595C395.3,588.17,384.47,469.45,442.65,460.19Z"/><ellipse class="cls-2" cx="505.8" cy="414.3" rx="7.66" ry="17.19" transform="translate(-65.73 731.85) rotate(-68.38)"/><ellipse class="cls-2" cx="438.14" cy="419.13" rx="41.02" ry="16.34" transform="translate(-27.46 30.73) rotate(-3.89)"/><line class="cls-3" x1="271.93" y1="186.32" x2="352.31" y2="196.83"/><path class="cls-3" d="M534.82,307.6s38.81,7.23,9.45,44.34"/><path class="cls-4" d="M362.31,135s-21.42,35.83-19.92,40.6c0,0,22.66-4.73,27.22-13.41S362.31,135,362.31,135Z"/><line class="cls-3" x1="541.54" y1="81.13" x2="500.35" y2="152.96"/><path class="cls-5" d="M403,348.19s7.67,5.05,8.69,65.56"/><path class="cls-4" d="M342.39,175.6l54.68,173a4.13,4.13,0,0,0,5.18,2.71l141.46-43.8a5.81,5.81,0,0,0,3.84-7.21L488,101.92a5.4,5.4,0,0,0-6.77-3.61L362.31,135s11.49,25.28,6.13,29.11S363.07,167.94,342.39,175.6Z"/><circle class="cls-6" cx="452.44" cy="166.66" r="2.55"/><path class="cls-6" d="M423.07,201.64s19.13,3.39,24.62-4.18c0,0,9.34,15.41,1.17,24.61-4.39,4.94-16.76,6.54-23.06.76C420.38,217.87,420.36,206.12,423.07,201.64Z"/><path class="cls-1" d="M127.41,44.7h83.75s11.74-10.55,0-18.72c0,0-7.92-3.83-12-2,0,0-22.47-47.75-53.36-1.79C145.8,22.15,115.93,19.26,127.41,44.7Z"/><path class="cls-1" d="M762,41.81H685.71s-8.51-24.17,21.11-23.49c0,0,29.28-32.68,47,4.43C753.8,22.75,773.2,25.13,762,41.81Z"/><polygon class="cls-7" points="152.44 357.89 54.56 595.34 136.61 595.34 224.78 380.53 152.44 357.89"/><line class="cls-8" x1="3.5" y1="595.34" x2="30.05" y2="595.34"/><polygon class="cls-7" points="203.03 595.34 197.37 522.83 275.75 517.21 280.35 595.18 203.03 595.34"/><line class="cls-8" x1="921.63" y1="593.98" x2="951.24" y2="593.98"/><line class="cls-8" x1="849.71" y1="629.3" x2="761.63" y2="629.3"/><path class="cls-8" d="M724.12,629.3h11.47"/><line class="cls-8" x1="863.24" y1="659" x2="885.2" y2="659"/><line class="cls-8" x1="77.12" y1="658.41" x2="99.33" y2="658.41"/><line class="cls-8" x1="222.65" y1="629.04" x2="175.16" y2="629.04"/><line class="cls-8" x1="138.39" y1="629.04" x2="113.37" y2="629.04"/><polygon class="cls-4" points="669.39 119.39 664.66 115.47 658.57 114.71 662.5 109.98 663.26 103.89 667.98 107.82 674.08 108.58 670.15 113.3 669.39 119.39"/><polygon class="cls-4" points="624 27.1 622.65 33.45 626.62 38.59 620.27 37.24 615.12 41.2 616.47 34.85 612.51 29.71 618.86 31.06 624 27.1"/><polygon class="cls-4" points="468.3 1.34 475.76 15.45 491.12 19.76 477.01 27.22 472.7 42.58 465.25 28.47 449.88 24.16 463.99 16.7 468.3 1.34"/><polygon class="cls-4" points="284.35 70.06 279.76 71.22 276.52 74.66 275.37 70.07 271.93 66.83 276.51 65.68 279.75 62.23 280.91 66.82 284.35 70.06"/><polygon class="cls-4" points="168.06 145.53 168.11 152.95 172.16 159.17 164.74 159.23 158.52 163.28 158.46 155.86 154.41 149.64 161.84 149.58 168.06 145.53"/><circle class="cls-6" cx="406.29" cy="182.94" r="2.55"/><polyline class="cls-8" points="900.81 593.98 615.92 594.72 163.67 595.34"/><polygon class="cls-7" points="612.52 594.73 732.53 312 805.67 334.92 710.8 568.79 782.56 564.7 777.46 476.36 855.07 470.75 863.25 559.6 901.03 556.02 904.38 593.98 612.52 594.73"/></g></g></svg>